<?xml version="1.0" standalone="no"?>
<!DOCTYPE svg PUBLIC "-//W3C//DTD SVG 20010904//EN"
 "http://www.w3.org/TR/2001/REC-SVG-20010904/DTD/svg10.dtd">
<svg version="1.0" xmlns="http://www.w3.org/2000/svg"
 width="512.000000pt" height="512.000000pt" viewBox="0 0 512.000000 512.000000"
 preserveAspectRatio="xMidYMid meet">
<metadata>
Created by potrace 1.14, written by Peter Selinger 2001-2017
</metadata>
<g transform="translate(0.000000,512.000000) scale(0.100000,-0.100000)"
fill="#000000" stroke="none">
<path d="M2444 4715 c-160 -44 -302 -196 -332 -356 -10 -52 -9 -3571 1 -3608
58 -217 234 -359 447 -359 122 0 219 40 315 130 66 61 106 129 129 218 21 84
18 3593 -4 3660 -32 101 -110 204 -195 258 -99 63 -251 87 -361 57z"/>
<path d="M3541 3850 c-136 -49 -233 -139 -287 -266 l-29 -69 -2 -1355 c-3
-1478 -5 -1422 54 -1529 80 -144 220 -230 384 -237 128 -5 234 34 328 122 67
62 124 164 139 249 4 28 8 653 7 1390 l-1 1340 -23 63 c-51 147 -146 240 -296
292 -78 27 -200 27 -274 0z"/>
<path d="M1375 3159 c-70 -12 -89 -18 -138 -43 -107 -56 -179 -137 -224 -252
l-27 -69 -1 -995 c-2 -1086 -3 -1060 57 -1171 51 -97 164 -188 273 -221 56
-17 151 -20 211 -8 176 36 313 166 360 343 21 80 19 1992 -2 2074 -59 226
-290 381 -509 342z"/>
</g>
</svg>
