<?xml version="1.0" standalone="no"?>
<!DOCTYPE svg PUBLIC "-//W3C//DTD SVG 20010904//EN"
 "http://www.w3.org/TR/2001/REC-SVG-20010904/DTD/svg10.dtd">
<svg version="1.0" xmlns="http://www.w3.org/2000/svg"
 width="512.000000pt" height="512.000000pt" viewBox="0 0 512.000000 512.000000"
 preserveAspectRatio="xMidYMid meet">
<metadata>
Created by potrace 1.14, written by Peter Selinger 2001-2017
</metadata>
<g transform="translate(0.000000,512.000000) scale(0.100000,-0.100000)"
fill="#000000" stroke="none">
<path d="M2338 4705 c-2 -2 -26 -7 -53 -10 -323 -41 -669 -172 -930 -353 -352
-244 -609 -557 -783 -952 -43 -97 -110 -319 -126 -417 -4 -18 -8 -46 -11 -63
-20 -116 -24 -180 -21 -370 4 -234 5 -249 41 -422 65 -318 226 -657 433 -913
343 -422 859 -711 1388 -778 89 -12 476 -14 554 -4 140 19 322 63 457 113 473
171 881 512 1136 949 108 186 208 445 242 630 10 50 19 98 20 107 29 148 26
521 -6 698 -79 452 -284 846 -605 1165 -335 334 -727 528 -1229 610 -44 8
-500 16 -507 10z m467 -138 c18 -4 52 -10 140 -23 17 -3 72 -16 124 -30 715
-193 1267 -751 1446 -1461 14 -56 28 -121 31 -145 3 -24 7 -49 9 -56 18 -55
26 -368 12 -504 -45 -446 -249 -877 -569 -1201 -177 -179 -349 -301 -580 -412
-102 -49 -284 -116 -348 -129 -14 -2 -69 -14 -123 -26 -136 -29 -208 -35 -397
-35 -168 0 -229 5 -335 25 -434 82 -778 262 -1080 565 -311 310 -498 676 -572
1118 -24 147 -24 495 1 632 91 507 332 921 721 1242 284 235 695 408 1042 438
43 4 80 9 82 11 5 5 371 -3 396 -9z"/>
<path d="M1638 4103 c-9 -10 -51 -151 -93 -313 -43 -162 -91 -344 -107 -405
-31 -117 -66 -250 -72 -275 -2 -8 -45 -169 -95 -356 -50 -188 -91 -349 -91
-358 0 -9 7 -16 15 -16 12 0 158 82 438 246 59 34 82 40 104 26 9 -6 561 -947
600 -1024 18 -35 51 -58 72 -50 9 3 248 140 531 305 463 268 550 323 550 346
0 4 -43 81 -96 171 -53 91 -106 183 -118 205 -37 65 -57 98 -206 355 -202 346
-207 356 -194 377 6 10 121 81 255 159 134 77 245 148 247 156 2 12 -24 23
-110 46 -135 38 -336 91 -360 97 -10 2 -62 16 -115 31 -54 14 -102 27 -108 29
-12 2 7 -3 -330 86 -143 38 -273 73 -290 78 -28 9 -141 39 -175 46 -8 2 -58
15 -110 29 -113 31 -122 31 -142 9z"/>
<path d="M3535 2042 c-27 -16 -237 -138 -465 -272 -228 -133 -454 -266 -502
-293 -49 -28 -88 -56 -88 -63 0 -26 22 -25 68 4 33 21 881 519 1054 619 8 4
-1 33 -11 33 -3 0 -28 -13 -56 -28z"/>
<path d="M3395 1779 c-137 -81 -261 -154 -275 -162 -14 -7 -81 -46 -150 -87
-69 -40 -179 -104 -245 -143 -66 -38 -130 -76 -142 -84 -26 -15 -31 -43 -9
-43 8 0 212 115 453 257 241 141 485 284 543 317 98 58 138 97 93 95 -10 -1
-130 -68 -268 -150z"/>
<path d="M3685 1774 c-22 -13 -71 -42 -110 -65 -91 -52 -113 -65 -280 -163
-457 -269 -608 -356 -614 -356 -4 0 -18 -11 -31 -25 -20 -21 -21 -25 -7 -31
11 -4 65 22 149 72 73 42 157 91 187 108 29 17 70 41 90 53 20 12 43 25 51 29
8 4 31 17 50 29 19 12 55 33 80 47 235 134 505 299 505 310 0 21 -27 18 -70
-8z"/>
<path d="M3800 1650 c-13 -9 -393 -230 -625 -365 -407 -237 -450 -264 -450
-282 0 -10 6 -17 14 -15 12 3 563 321 911 527 14 8 62 36 107 63 54 30 83 53
83 65 0 18 -16 21 -40 7z"/>
<path d="M3750 1435 c-80 -47 -152 -89 -160 -95 -8 -5 -31 -18 -50 -29 -162
-90 -735 -431 -738 -440 -12 -37 48 -11 270 120 134 78 257 150 273 159 25 15
103 60 338 199 15 9 76 44 135 79 101 59 126 83 92 90 -8 1 -80 -36 -160 -83z"/>
</g>
</svg>
