<?xml version="1.0" standalone="no"?>
<!DOCTYPE svg PUBLIC "-//W3C//DTD SVG 20010904//EN"
 "http://www.w3.org/TR/2001/REC-SVG-20010904/DTD/svg10.dtd">
<svg version="1.0" xmlns="http://www.w3.org/2000/svg"
 width="124.000000pt" height="124.000000pt" viewBox="0 0 124.000000 124.000000"
 preserveAspectRatio="xMidYMid meet">
<metadata>
Created by potrace 1.14, written by Peter Selinger 2001-2017
</metadata>
<g transform="translate(0.000000,124.000000) scale(0.100000,-0.100000)"
fill="#000000" stroke="none">
<path d="M515 1162 c-50 -37 -172 -125 -270 -196 -99 -71 -191 -140 -205 -152
l-25 -23 0 -280 c0 -154 3 -282 7 -286 4 -4 13 -1 21 6 17 17 76 68 267 229
205 172 252 213 270 230 12 13 16 38 15 120 l0 105 -50 5 c-42 4 -50 9 -53 27
-3 20 2 22 50 25 52 3 53 3 54 36 0 18 5 37 12 44 19 19 39 -7 37 -47 l-3 -35
54 0 c51 0 54 -2 54 -24 0 -23 -4 -25 -52 -28 l-53 -3 0 -103 c-1 -56 1 -106
4 -110 6 -8 149 -130 451 -384 63 -54 117 -98 120 -98 3 0 5 130 5 290 l0 289
-297 216 c-163 118 -302 215 -310 214 -7 0 -54 -31 -103 -67z"/>
<path d="M418 339 c-239 -199 -217 -181 -316 -262 -45 -38 -82 -70 -82 -71 0
-2 270 -3 600 -3 330 0 600 1 600 2 0 2 -66 58 -147 126 -82 68 -214 178 -295
246 -81 68 -151 123 -157 123 -5 0 -96 -72 -203 -161z"/>
</g>
</svg>
