<?xml version="1.0" standalone="no"?>
<!DOCTYPE svg PUBLIC "-//W3C//DTD SVG 20010904//EN"
 "http://www.w3.org/TR/2001/REC-SVG-20010904/DTD/svg10.dtd">
<svg version="1.0" xmlns="http://www.w3.org/2000/svg"
 width="1024.000000pt" height="1024.000000pt" viewBox="0 0 1024.000000 1024.000000"
 preserveAspectRatio="xMidYMid meet">
<metadata>
Created by potrace 1.14, written by Peter Selinger 2001-2017
</metadata>
<g transform="translate(0.000000,1024.000000) scale(0.100000,-0.100000)"
fill="#000000" stroke="none">
<path d="M5098 8343 c-10 -2 -18 -8 -18 -13 0 -4 -8 -10 -17 -14 -10 -3 -27
-11 -38 -18 -52 -34 -126 -78 -131 -78 -3 0 -30 -16 -60 -35 -30 -19 -57 -35
-59 -35 -3 0 -24 -12 -48 -27 -23 -15 -51 -33 -63 -39 -62 -34 -220 -130 -225
-137 -3 -5 -9 -8 -13 -8 -3 1 -46 -22 -94 -50 -48 -29 -100 -60 -117 -69 -16
-9 -75 -44 -130 -77 -55 -33 -206 -122 -335 -198 -129 -76 -238 -143 -242
-149 -4 -6 -8 -8 -8 -4 0 4 -57 -27 -127 -69 -71 -42 -141 -84 -158 -93 -16
-9 -65 -38 -107 -63 -73 -43 -78 -45 -79 -24 0 12 0 122 0 245 l0 222 -72 0
c-239 1 -490 1 -542 1 l-61 -1 1 -442 0 -443 -110 -67 c-61 -37 -115 -68 -122
-68 -6 0 -13 -4 -15 -8 -1 -4 -57 -39 -122 -77 -66 -39 -140 -82 -165 -97 -25
-15 -64 -37 -86 -49 -22 -12 -42 -24 -45 -28 -3 -3 -18 -13 -35 -21 -16 -8
-32 -18 -35 -21 -3 -4 -23 -16 -45 -27 -76 -39 -82 -46 -65 -78 8 -16 21 -35
27 -42 7 -7 13 -20 13 -28 0 -8 3 -14 8 -14 4 0 18 -21 32 -47 13 -27 34 -64
46 -83 80 -131 87 -140 99 -130 6 5 15 7 18 3 4 -3 7 -1 7 5 0 7 4 12 10 12 5
0 38 18 72 40 35 22 69 40 76 40 6 0 12 5 12 10 0 6 7 10 15 10 8 0 15 5 15
10 0 6 4 10 10 10 5 0 53 26 107 59 202 121 348 205 352 202 2 -1 7 1 10 6 8
12 180 113 192 113 5 0 9 4 9 9 0 5 8 11 18 15 9 3 35 17 57 31 22 14 49 30
60 36 11 5 29 15 40 22 90 55 148 87 156 87 5 0 9 5 9 10 0 6 5 10 10 10 6 0
39 17 73 39 84 52 309 185 390 230 16 9 36 21 45 26 121 72 151 90 172 104 14
8 27 16 30 16 3 0 16 8 30 16 102 64 128 79 138 79 7 0 12 5 12 10 0 6 4 10 8
10 7 0 143 79 247 142 94 57 340 198 347 198 4 0 8 4 8 8 0 4 19 18 43 30 48
25 76 41 167 97 36 22 78 47 93 55 15 8 75 43 132 78 57 34 109 62 115 62 5 0
10 4 10 8 0 5 17 17 38 26 39 18 46 16 120 -29 115 -70 194 -115 202 -115 6 0
10 -4 10 -8 0 -5 16 -14 35 -22 19 -8 35 -17 35 -21 0 -4 19 -16 43 -28 44
-22 56 -29 122 -72 22 -15 43 -27 48 -28 4 0 17 -7 30 -15 70 -45 211 -126
218 -126 5 0 9 -4 9 -10 0 -5 5 -10 12 -10 6 0 51 -25 100 -55 48 -30 93 -55
98 -55 6 0 10 -5 10 -11 0 -5 4 -8 9 -5 5 4 11 3 13 -1 1 -5 15 -15 30 -23 15
-8 73 -42 128 -75 112 -66 102 -61 220 -129 47 -27 93 -56 103 -64 9 -8 17
-12 17 -9 0 6 61 -31 87 -53 7 -5 15 -10 19 -10 3 0 40 -20 81 -45 40 -25 78
-45 83 -45 6 0 10 -4 10 -10 0 -5 5 -10 10 -10 6 0 27 -11 48 -23 46 -30 322
-193 354 -210 61 -32 223 -133 226 -139 2 -5 12 -8 23 -8 10 0 19 -3 19 -8 0
-4 21 -18 48 -31 26 -14 57 -34 70 -45 12 -11 22 -16 22 -11 0 4 8 1 18 -7 9
-8 82 -52 162 -98 80 -46 148 -89 152 -94 4 -6 8 -7 8 -3 0 4 6 3 13 -3 15
-13 297 -180 304 -180 3 0 18 -10 35 -21 25 -18 32 -19 39 -8 5 8 57 94 115
192 100 168 105 179 87 192 -10 7 -67 42 -126 77 -60 35 -123 71 -140 82 -18
10 -45 26 -62 35 -16 9 -49 29 -72 44 -24 15 -45 27 -47 27 -9 0 -111 65 -114
73 -2 4 -8 7 -13 7 -5 0 -54 27 -110 60 -55 33 -105 60 -110 60 -5 0 -9 5 -9
10 0 6 -4 10 -10 10 -5 0 -39 18 -75 40 -36 22 -65 36 -65 32 0 -4 -5 1 -11
11 -5 9 -14 17 -19 17 -4 0 -56 29 -114 64 -59 36 -108 64 -109 64 -1 -1 -21
11 -44 25 -24 15 -47 27 -52 27 -5 0 -11 4 -13 8 -1 4 -61 41 -133 82 -71 41
-132 77 -135 81 -3 3 -16 12 -30 19 -14 7 -101 58 -195 113 -93 56 -173 100
-177 99 -5 -1 -8 2 -8 8 0 5 -6 10 -14 10 -7 0 -18 6 -24 13 -6 7 -33 24 -61
37 -28 14 -51 29 -51 33 0 5 -4 5 -10 2 -5 -3 -10 -2 -10 2 0 5 -17 17 -37 28
-21 11 -61 34 -90 52 -29 18 -56 33 -62 33 -5 0 -11 3 -13 8 -4 9 -76 51 -100
59 -10 3 -18 9 -18 14 0 5 -6 9 -14 9 -7 0 -24 8 -37 18 -13 11 -44 30 -69 44
-25 14 -92 53 -148 86 -57 34 -108 62 -113 62 -5 0 -9 4 -9 9 0 5 -8 11 -17
15 -10 3 -31 14 -48 23 -16 10 -109 65 -205 123 -96 58 -184 109 -195 113 -11
4 -22 11 -25 15 -5 7 -32 23 -100 59 -19 10 -37 21 -40 24 -10 11 -97 59 -106
58 -5 -1 -17 -3 -26 -6z"/>
<path d="M4945 6090 c-184 -48 -333 -172 -422 -350 -21 -41 -38 -78 -39 -82
-1 -5 -2 -9 -3 -10 -2 -2 -4 -14 -6 -28 -2 -14 -8 -46 -13 -72 -13 -66 -7
-192 12 -268 28 -109 89 -216 177 -310 58 -62 207 -153 270 -165 11 -2 23 -6
27 -9 15 -9 99 -19 172 -20 62 -1 157 12 205 28 6 2 12 3 15 3 3 0 42 18 86
42 96 49 205 148 258 233 20 32 36 60 36 63 -1 3 6 18 14 33 14 27 27 58 31
77 26 115 37 268 21 293 -3 5 -8 24 -11 43 -7 40 -41 130 -69 179 -95 168
-270 298 -445 330 -85 16 -237 11 -316 -10z"/>
<path d="M2640 5154 c-30 -8 -91 -32 -135 -54 -192 -96 -327 -281 -359 -493
-1 -7 -4 -16 -6 -22 -12 -24 3 -224 19 -254 5 -9 10 -20 11 -26 32 -141 171
-309 325 -394 157 -87 354 -101 543 -40 23 8 42 17 42 21 0 5 9 8 20 8 11 0
20 5 20 10 0 6 7 10 15 10 15 0 107 71 161 125 44 43 110 147 134 212 30 80
42 139 45 225 12 315 -204 599 -513 674 -70 16 -253 16 -322 -2z"/>
<path d="M7275 5156 c-161 -44 -230 -88 -377 -247 -10 -11 -18 -23 -18 -29 0
-5 -5 -10 -11 -10 -5 0 -8 -4 -4 -9 3 -5 0 -13 -5 -16 -17 -10 -58 -107 -76
-177 -31 -118 -22 -292 20 -392 8 -19 12 -37 8 -40 -3 -3 0 -6 6 -6 7 0 12 -5
12 -11 0 -24 73 -131 125 -183 98 -98 234 -175 335 -188 14 -2 30 -6 35 -9 9
-6 204 -5 215 1 3 1 8 2 12 1 18 -2 122 35 188 67 56 28 96 59 162 124 49 48
88 93 88 99 0 6 9 23 19 37 26 38 68 142 76 194 4 24 9 52 11 63 11 56 -1 233
-16 253 -2 1 -4 7 -5 12 -1 6 -4 12 -5 15 -1 3 -3 8 -5 13 -50 177 -235 362
-425 424 -82 26 -289 34 -365 14z"/>
<path d="M4780 4663 c0 -4 -28 -9 -63 -10 -34 -1 -75 -4 -92 -8 -16 -3 -39 -7
-50 -10 -11 -2 -21 -4 -22 -5 -2 -2 -6 -3 -10 -5 -41 -11 -116 -47 -125 -60
-4 -5 -8 -6 -8 -2 0 8 -31 -12 -85 -53 -55 -42 -135 -137 -162 -192 -50 -101
-57 -131 -68 -268 -8 -91 -12 -135 -14 -135 -1 0 -3 -29 -5 -65 -3 -36 -7 -83
-10 -105 -3 -22 -8 -67 -11 -100 -11 -126 -15 -161 -20 -195 -7 -53 -18 -192
-17 -214 1 -28 39 -77 86 -112 49 -38 192 -113 261 -139 28 -10 55 -21 60 -25
21 -16 262 -85 330 -95 22 -4 47 -8 55 -10 118 -32 525 -25 680 11 14 3 36 8
50 10 186 34 523 183 626 278 51 47 55 54 55 96 0 25 -3 70 -7 100 -4 30 -8
74 -8 97 -1 24 -4 43 -8 43 -4 0 -6 8 -6 18 1 9 -2 40 -6 67 -10 74 -16 124
-22 180 -8 80 -13 117 -20 165 -6 48 -9 69 -18 170 -13 128 -46 218 -117 312
-67 89 -203 182 -322 219 -89 28 -89 28 -159 33 -32 3 -66 7 -77 11 -11 3 -22
1 -26 -5 -4 -7 -12 -7 -26 0 -11 6 -19 7 -19 1 0 -5 -14 -6 -35 -1 -20 4 -38
4 -41 -1 -3 -5 -13 -5 -25 1 -11 6 -19 7 -19 1 0 -5 -14 -6 -35 -1 -20 4 -38
4 -41 -1 -3 -5 -13 -5 -25 1 -10 6 -19 7 -19 3 0 -4 -43 -6 -96 -3 -53 3 -98
2 -101 -3 -2 -4 -13 -2 -24 3 -11 6 -19 7 -19 1 0 -5 -14 -6 -35 -1 -20 4 -38
4 -41 -1 -3 -5 -13 -5 -25 1 -10 6 -19 7 -19 3z"/>
<path d="M2488 3724 c-4 -3 -38 -8 -75 -9 -73 -3 -118 -10 -155 -24 -13 -5
-27 -10 -33 -11 -42 -11 -93 -34 -175 -81 -43 -24 -174 -162 -199 -209 -35
-68 -61 -156 -66 -229 -3 -36 -8 -82 -10 -101 -3 -19 -7 -67 -10 -107 -2 -40
-7 -85 -9 -100 -6 -38 -14 -118 -30 -298 -2 -22 -5 -40 -5 -40 -2 0 -9 -70
-16 -166 l-5 -77 46 -51 c25 -28 52 -51 60 -51 8 0 14 -3 14 -7 0 -5 10 -13
23 -19 12 -6 54 -27 92 -47 39 -19 90 -44 115 -55 53 -23 256 -92 285 -97 11
-2 43 -8 70 -14 28 -6 61 -13 75 -16 130 -27 544 -27 640 0 8 3 31 7 50 9 19
3 62 12 94 21 33 8 67 17 75 19 9 2 25 6 36 10 11 5 36 14 56 21 20 8 39 11
43 8 3 -4 6 -1 6 5 0 7 7 12 16 12 8 0 53 18 99 40 46 22 89 40 94 40 6 0 11
5 11 10 0 6 5 10 11 10 6 0 31 14 56 30 24 17 46 30 49 30 4 0 26 21 51 48
l45 47 -6 70 c-8 86 -14 139 -21 185 -2 19 -7 58 -10 85 -10 86 -15 129 -20
155 -2 14 -7 52 -10 85 -4 33 -8 71 -10 85 -2 14 -8 79 -15 145 -24 242 -82
359 -241 488 -49 39 -199 113 -246 121 -15 2 -28 5 -28 6 0 7 -185 23 -240 21
-154 -5 -205 -5 -205 2 0 5 -5 5 -11 1 -19 -11 -89 -11 -89 0 0 7 -3 8 -8 1
-9 -12 -92 -14 -92 -2 0 4 -5 5 -12 1 -16 -10 -147 -11 -151 -1 -1 5 -5 5 -9
1z"/>
<path d="M7208 3725 c-3 -4 -62 -8 -131 -9 -68 -2 -128 -6 -133 -9 -5 -3 -26
-8 -48 -11 -45 -7 -211 -85 -251 -118 -107 -89 -181 -191 -211 -293 -22 -75
-21 -65 -28 -172 -4 -50 -8 -99 -10 -109 -2 -11 -7 -57 -11 -104 -4 -47 -8
-92 -10 -100 -1 -8 -6 -51 -10 -94 -4 -43 -8 -86 -10 -95 -1 -9 -6 -56 -10
-105 -4 -50 -9 -99 -11 -110 -10 -52 -6 -124 9 -147 23 -34 97 -89 195 -142
45 -25 82 -44 82 -42 0 2 24 -7 53 -19 46 -21 81 -36 97 -41 3 -1 12 -4 20 -8
38 -16 229 -68 265 -72 27 -4 94 -15 130 -22 41 -8 457 -12 470 -4 6 3 21 7
35 8 35 2 65 9 240 48 107 24 400 146 438 183 8 6 18 10 23 7 5 -4 9 -3 9 2 0
4 17 19 38 33 85 57 103 101 88 210 -7 53 -16 127 -21 168 -3 23 -8 61 -11 85
-3 23 -7 60 -10 82 -2 22 -6 56 -8 75 -3 19 -7 63 -10 98 -3 35 -8 66 -10 70
-2 4 -7 41 -11 82 -4 41 -9 93 -11 115 -18 190 -146 377 -320 466 -107 54
-199 79 -310 84 -46 2 -89 7 -94 10 -6 3 -10 3 -10 -2 0 -7 -187 -10 -215 -3
-5 1 -14 1 -20 0 -30 -6 -245 -4 -248 3 -1 5 -5 5 -9 2z"/>
</g>
</svg>
